# xmcd
#
# Track frame offsets:
#	182
#	12462
#	27392
#	48915
#	62795
#	73185
#	84282
#	102900
#	115565
#	128750
#	139430
#	150317
#	162787
#	171062
#	181745
#	191545
#	200457
#	209927
#	223252
#	234570
#	245347
#	255520
#	268140
#	280287
#	292062
#
# Disc length: 3987 seconds
#
# Revision: 1
# Processed by: cddbd v1.5.2PL0 Copyright (c) Steve Scherf et al.
# Submitted via: EZCDAudioConverter 8.0.2.1
#
DISCID=770f9119
DTITLE=Various Artist - Country Stars - 125 Great Country Hits
DYEAR=1994
DGENRE=Pop/Country
TTITLE0=Charlie Rich - Behind Closed Doors
TTITLE1=Conway Twitty - I'd Just Love To Lay You Down
TTITLE2=Bobby Bare - Numbers
TTITLE3=Tommy Overstreet - Dream Maker
TTITLE4=Buck Owens - Rollin' In My Sweet Baby's Arms
TTITLE5=Dolly Parton - What Do You Think About Loving
TTITLE6=Alabama - I Wanna Be With You Tonight
TTITLE7=Willie Nelson - Any Old Arms Won't Do
TTITLE8=Mac Davis - Burnin' Thing
TTITLE9=David Houston and Barbara Mandrell - After Closing Time
TTITLE10=Stonewall Jackson - I Need You Real Bad
TTITLE11=Norma Jean - Let's Go All The Way
TTITLE12=Del Reeves - Lay A Little Lovin' On Me
TTITLE13=Waylon Jennings - Dream Baby
TTITLE14=Warner Mack - Love Hungry
TTITLE15=Webb Pierce - I Ain't Never
TTITLE16=Patsy Cline - Love Me, Love Me Honey Do
TTITLE17=Kenny Rogers - Ruby Don't Take Your Love To Town
TTITLE18=Merle Travis - Sweet Temptation
TTITLE19=Lynn Anderson - Heaven's Just A Sin Away
TTITLE20=Leroy van Dyke - If A Woman Answers (Hang Up The Phone)
TTITLE21=Billy Walker - Circumstances
TTITLE22=George Jones - Take Me
TTITLE23=Jimmie Rodgers - Secretly
TTITLE24=Faron Young - Alone With You
EXTD=
EXTT0=
EXTT1=
EXTT2=
EXTT3=
EXTT4=
EXTT5=
EXTT6=
EXTT7=
EXTT8=
EXTT9=
EXTT10=
EXTT11=
EXTT12=
EXTT13=
EXTT14=
EXTT15=
EXTT16=
EXTT17=
EXTT18=
EXTT19=
EXTT20=
EXTT21=
EXTT22=
EXTT23=
EXTT24=
PLAYORDER=
